<?xml version="1.0" encoding="UTF-8"?>
<svg id="Layer_1" data-name="Layer 1" xmlns="http://www.w3.org/2000/svg" viewBox="0 0 740.43 94.08">
  <defs>
    <style>
      .cls-1 {
        fill: #0062ff;
      }

      .cls-2 {
        fill: none;
      }
    </style>
  </defs>
  <g>
    <path class="cls-2" d="m550.76,64.02c2.48-1,3.72-2.74,3.72-5.22s-1.24-4.08-3.72-5.04c-2.48-.96-6.72-1.44-12.72-1.44s-10.24.48-12.72,1.44c-2.48.96-3.72,2.64-3.72,5.04s1.24,4.22,3.72,5.22c2.48,1,6.72,1.5,12.72,1.5s10.24-.5,12.72-1.5Z"/>
    <path d="m562.46,29.28h-48.73c-3.54,0-6.42,2.87-6.42,6.42v50.65c0,3.54,2.87,6.42,6.42,6.42h48.73c3.54,0,6.42-2.87,6.42-6.42v-50.65c0-3.54-2.87-6.42-6.42-6.42Zm-37.14,34.74c-2.48-1-3.72-2.74-3.72-5.22s1.24-4.08,3.72-5.04c2.48-.96,6.72-1.44,12.72-1.44s10.24.48,12.72,1.44c2.48.96,3.72,2.64,3.72,5.04s-1.24,4.22-3.72,5.22c-2.48,1-6.72,1.5-12.72,1.5s-10.24-.5-12.72-1.5Z"/>
  </g>
  <path d="m30.72,94.08c-5.52,0-10.62-.54-15.3-1.62-4.68-1.08-8.42-2.8-11.22-5.16-2.8-2.36-4.2-5.5-4.2-9.42,0-3.44,1.04-6.28,3.12-8.52,2.08-2.24,4.84-3.36,8.28-3.36,2.16,0,4.34.34,6.54,1.02,2.2.68,4.54,1.34,7.02,1.98,2.48.64,5.16.96,8.04.96,2.56,0,4.28-.14,5.16-.42.88-.28,1.32-.82,1.32-1.62,0-.96-.54-1.6-1.62-1.92-1.08-.32-2.9-.72-5.46-1.2l-8.64-1.68c-3.6-.72-7.1-1.66-10.5-2.82-3.4-1.16-6.2-2.9-8.4-5.22-2.2-2.32-3.3-5.48-3.3-9.48,0-5.44,2.42-9.68,7.26-12.72,4.84-3.04,11.86-4.56,21.06-4.56,5.28,0,10.02.52,14.22,1.56,4.2,1.04,7.54,2.58,10.02,4.62,2.48,2.04,3.72,4.58,3.72,7.62.08,3.28-.8,5.92-2.64,7.92-1.84,2-4.16,3-6.96,3-2,0-4.02-.26-6.06-.78-2.04-.52-4.24-1.08-6.6-1.68-2.36-.6-5.06-.94-8.1-1.02-2.16-.16-3.92-.04-5.28.36-1.36.4-2.04,1.04-2.04,1.92,0,.96.8,1.62,2.4,1.98,1.6.36,4,.82,7.2,1.38l8.52,1.56c5.2.88,9.34,1.98,12.42,3.3,3.08,1.32,5.3,3.14,6.66,5.46,1.36,2.32,2.04,5.52,2.04,9.6s-1.22,7.78-3.66,10.62c-2.44,2.84-5.82,4.94-10.14,6.3-4.32,1.36-9.28,2.04-14.88,2.04Z"/>
  <path d="m96.48,92.88c-4.24,0-8.06-.96-11.46-2.88-3.4-1.92-6.06-4.66-7.98-8.22-1.92-3.56-2.88-7.74-2.88-12.54v-21.12l-4.44.6c-2.4.32-4.52-.52-6.36-2.52-1.84-2-2.76-4.52-2.76-7.56s.92-5.54,2.76-7.5c1.84-1.96,3.96-2.78,6.36-2.46l4.44.6-.12-8.16c-.08-3.2.84-5.74,2.76-7.62,1.92-1.88,4.72-2.82,8.4-2.82s6.52.94,8.52,2.82c2,1.88,2.92,4.42,2.76,7.62l-.24,8.16,6.36-.84c4.32-.64,7.6.14,9.84,2.34,2.24,2.2,3.36,4.82,3.36,7.86s-1.1,5.66-3.3,7.86-5.38,3.02-9.54,2.46l-6.72-.84v17.88c0,1.04.36,1.98,1.08,2.82.72.84,1.6,1.1,2.64.78,1.2-.32,2.46-1,3.78-2.04,1.32-1.04,3.02-1.56,5.1-1.56,3.12,0,5.52,1.12,7.2,3.36,1.68,2.24,2.52,5,2.52,8.28,0,2.56-.9,5.02-2.7,7.38-1.8,2.36-4.34,4.26-7.62,5.7-3.28,1.44-7.2,2.16-11.76,2.16Z"/>
  <path d="m143.16,92.52c-5.6,0-10.16-2.12-13.68-6.36-3.52-4.24-5.32-10.2-5.4-17.88l-.12-27.72c0-3.44,1.06-6.14,3.18-8.1,2.12-1.96,5.02-2.94,8.7-2.94s6.36.98,8.52,2.94c2.16,1.96,3.24,4.66,3.24,8.1v25.08c0,6,2.36,9,7.08,9,2.32,0,3.88-.86,4.68-2.58.8-1.72,1.2-3.94,1.2-6.66v-24.84c0-3.12,1.08-5.74,3.24-7.86,2.16-2.12,4.96-3.18,8.4-3.18s6.38,1.06,8.34,3.18c1.96,2.12,2.94,4.74,2.94,7.86v39.36c0,3.84-.86,6.9-2.58,9.18-1.72,2.28-4.5,3.42-8.34,3.42s-6.7-1.14-8.82-3.42c-2.12-2.28-3.18-5.34-3.18-9.18v-2.04h-2.16c0,4.64-1.38,8.24-4.14,10.8-2.76,2.56-6.46,3.84-11.1,3.84Z"/>
  <path d="m211.08,92.52c-14.56,0-21.84-10.72-21.84-32.16,0-9.28,1.8-16.7,5.4-22.26,3.6-5.56,9-8.34,16.2-8.34,3.92,0,7.1.8,9.54,2.4,2.44,1.6,4.36,3.78,5.76,6.54,1.4,2.76,2.42,5.94,3.06,9.54l.36-.12V11.76c0-3.28.98-6.06,2.94-8.34,1.96-2.28,4.82-3.42,8.58-3.42s6.42,1.14,8.22,3.42c1.8,2.28,2.7,5.14,2.7,8.58v54c0,2.72.22,5.22.66,7.5.44,2.28.78,4.54,1.02,6.78.24,3.04-.38,5.66-1.86,7.86-1.48,2.2-4.1,3.62-7.86,4.26-4.88.8-8.5-.04-10.86-2.52-2.36-2.48-3.54-6.16-3.54-11.04v-4.44h-2.28c0,5.84-1.46,10.32-4.38,13.44-2.92,3.12-6.86,4.68-11.82,4.68Zm-1.8-33.24c0,2.48.76,4.32,2.28,5.52,1.52,1.2,4.24,1.8,8.16,1.8s6.76-.6,8.28-1.8c1.52-1.2,2.28-3.04,2.28-5.52s-.74-4.42-2.22-5.58c-1.48-1.16-4.22-1.74-8.22-1.74s-6.76.58-8.28,1.74c-1.52,1.16-2.28,3.02-2.28,5.58Z"/>
  <path d="m258.96,15.84c0-3.44,1.06-6.22,3.18-8.34,2.12-2.12,5.06-3.18,8.82-3.18,4,0,6.98,1.04,8.94,3.12,1.96,2.08,2.94,4.84,2.94,8.28s-.98,6.06-2.94,8.1c-1.96,2.04-4.94,3.06-8.94,3.06s-6.9-1.02-8.94-3.06-3.06-4.7-3.06-7.98Zm12,76.68c-3.76,0-6.56-1.04-8.4-3.12-1.84-2.08-2.76-4.68-2.76-7.8v-41.04c0-3.44.92-6.16,2.76-8.16,1.84-2,4.64-3,8.4-3s6.58,1,8.46,3c1.88,2,2.82,4.64,2.82,7.92v41.28c0,3.12-.98,5.72-2.94,7.8-1.96,2.08-4.74,3.12-8.34,3.12Z"/>
  <path d="m474.44,94.08c-5.52,0-10.62-.54-15.3-1.62-4.68-1.08-8.42-2.8-11.22-5.16-2.8-2.36-4.2-5.5-4.2-9.42,0-3.44,1.04-6.28,3.12-8.52,2.08-2.24,4.84-3.36,8.28-3.36,2.16,0,4.34.34,6.54,1.02,2.2.68,4.54,1.34,7.02,1.98,2.48.64,5.16.96,8.04.96,2.56,0,4.28-.14,5.16-.42.88-.28,1.32-.82,1.32-1.62,0-.96-.54-1.6-1.62-1.92-1.08-.32-2.9-.72-5.46-1.2l-8.64-1.68c-3.6-.72-7.1-1.66-10.5-2.82-3.4-1.16-6.2-2.9-8.4-5.22-2.2-2.32-3.3-5.48-3.3-9.48,0-5.44,2.42-9.68,7.26-12.72,4.84-3.04,11.86-4.56,21.06-4.56,5.28,0,10.02.52,14.22,1.56,4.2,1.04,7.54,2.58,10.02,4.62,2.48,2.04,3.72,4.58,3.72,7.62.08,3.28-.8,5.92-2.64,7.92-1.84,2-4.16,3-6.96,3-2,0-4.02-.26-6.06-.78-2.04-.52-4.24-1.08-6.6-1.68-2.36-.6-5.06-.94-8.1-1.02-2.16-.16-3.92-.04-5.28.36-1.36.4-2.04,1.04-2.04,1.92,0,.96.8,1.62,2.4,1.98,1.6.36,4,.82,7.2,1.38l8.52,1.56c5.2.88,9.34,1.98,12.42,3.3,3.08,1.32,5.3,3.14,6.66,5.46,1.36,2.32,2.04,5.52,2.04,9.6s-1.22,7.78-3.66,10.62c-2.44,2.84-5.82,4.94-10.14,6.3-4.32,1.36-9.28,2.04-14.88,2.04Z"/>
  <path d="m603.28,92.52c-4.64,0-8.42-1.52-11.34-4.56-2.92-3.04-5.58-8.04-7.98-15l-9.12-27.12c-1.04-3.04-1.08-6.12-.12-9.24s3.16-5.24,6.6-6.36c3.2-1.12,6.12-1.04,8.76.24,2.64,1.28,4.48,3.48,5.52,6.6l9.84,29.4c1.12,3.44,2.28,5.74,3.48,6.9,1.2,1.16,2.8,1.42,4.8.78,1.68-.56,2.74-1.78,3.18-3.66.44-1.88-.14-5.14-1.74-9.78l-4.92-14.88c-1.04-3.12-1.06-6.22-.06-9.3,1-3.08,3.22-5.18,6.66-6.3,3.2-1.12,6.12-1.04,8.76.24,2.64,1.28,4.48,3.48,5.52,6.6l10.08,30.72c.64,1.84,1.64,3.52,3,5.04,1.36,1.52,3.12,1.96,5.28,1.32,1.68-.56,2.78-1.68,3.3-3.36.52-1.68.42-3.64-.3-5.88-.96-3.04-2.02-5.44-3.18-7.2-1.16-1.76-2.28-3.28-3.36-4.56-1.08-1.28-1.96-2.64-2.64-4.08-.68-1.44-1.1-3.4-1.26-5.88-.16-2.56.38-4.82,1.62-6.78,1.24-1.96,2.92-3.5,5.04-4.62,2.12-1.12,4.46-1.68,7.02-1.68,3.92,0,7.1,1.3,9.54,3.9,2.44,2.6,3.66,5.66,3.66,9.18,0,1.28-.2,2.96-.6,5.04-.4,2.08-.92,4-1.56,5.76l-5.04,13.08c-1.04,2.88-2.22,5.82-3.54,8.82-1.32,3-2.84,5.74-4.56,8.22-1.72,2.48-3.7,4.5-5.94,6.06-2.24,1.56-4.84,2.34-7.8,2.34-5.12,0-9.22-1.32-12.3-3.96-3.08-2.64-5.5-7-7.26-13.08h-1.2c-1.04,4.96-2.76,9.04-5.16,12.24-2.4,3.2-5.96,4.8-10.68,4.8Z"/>
  <path class="cls-1" d="m392.52,29.28h-98.95c-3.54,0-6.42,2.87-6.42,6.41v50.65c0,3.54,2.88,6.42,6.42,6.42h98.95c3.55,0,6.42-2.88,6.42-6.42v-50.65c0-3.54-2.87-6.41-6.42-6.41Zm-11.7,34.74c-2.47.99-6.69,1.49-12.66,1.5h-50.29c-6,0-10.24-.5-12.72-1.5-2.48-1-3.72-2.74-3.72-5.22s1.24-4.08,3.72-5.04c2.48-.96,6.72-1.44,12.72-1.44h50.29c5.97,0,10.19.48,12.66,1.44,2.48.96,3.72,2.64,3.72,5.04s-1.24,4.22-3.72,5.22Z"/>
  <circle cx="421.33" cy="61.2" r="9.47"/>
  <path d="m740.43,80.4c0,4-1.2,7.08-3.6,9.24-2.4,2.16-5.28,3.19-8.64,3.12-3.68-.08-6.72-1.16-9.12-3.24-2.4-2.08-4.4-4.88-6-8.4l-5.16-10.92c-1.04-2.16-2.38-3.72-4.02-4.68-1.64-.96-4.02-1.32-7.14-1.08v17.04c0,3.12-1.02,5.74-3.06,7.86-2.04,2.12-4.82,3.18-8.34,3.18s-6.32-1.06-8.4-3.18c-2.08-2.12-3.12-4.74-3.12-7.86V12c0-3.36,1.02-6.2,3.06-8.52,2.04-2.32,4.94-3.48,8.7-3.48s6.46,1.16,8.34,3.48,2.82,5.2,2.82,8.64v47.16s7.84.24,11.52.24,6-.24,7.2-.72c1.2-.48,1.8-1.32,1.8-2.52,0-.93-.38-1.67-1.21-2.21h0c-3.06-2.35-5.04-6.05-5.04-10.21,0-7.12,5.77-12.89,12.88-12.89,4.55,0,8.55,2.36,10.84,5.92-.02-.03-.04-.05-.06-.08.17.25.32.51.47.78.3.53.56,1.08.78,1.65-.21-.57-.47-1.12-.78-1.65-.12-.24-.26-.47-.41-.7,2.26,3,3.41,6.73,3.41,11.23,0,3.92-.78,7.02-2.34,9.3-1.56,2.28-3.66,3.86-6.3,4.74-2.64.88-5.56,1.28-8.76,1.2v2.04c7.12,0,12.18,1.42,15.18,4.26,3,2.84,4.5,6.42,4.5,10.74Z"/>
  <path d="m734.74,36.89c.15.23.29.46.41.7-.15-.27-.3-.53-.47-.78.02.03.04.05.06.08Z"/>
  <path d="m735.15,37.59c.31.53.57,1.08.78,1.65-.22-.57-.48-1.12-.78-1.65Z"/>
  <path d="m728.4,31.78s-.03,0-.04,0c.06.02.11.04.17.06-.04-.02-.09-.05-.13-.07Z"/>
  <path d="m734.74,36.89c.15.23.29.46.41.7-.15-.27-.3-.53-.47-.78.02.03.04.05.06.08Z"/>
  <path d="m735.15,37.59c.31.53.57,1.08.78,1.65-.22-.57-.48-1.12-.78-1.65Z"/>
</svg>